<?xml version="1.0" standalone="no"?><!DOCTYPE svg PUBLIC "-//W3C//DTD SVG 1.1//EN" "http://www.w3.org/Graphics/SVG/1.1/DTD/svg11.dtd"><svg t="1609941160346" class="icon" viewBox="0 0 1024 1024" version="1.1" xmlns="http://www.w3.org/2000/svg" p-id="8308" xmlns:xlink="http://www.w3.org/1999/xlink" width="200" height="200"><defs><style type="text/css"></style></defs><path d="M839.68 368.64a40.96 40.96 0 1 1-40.96-40.96 40.96 40.96 0 0 1 40.96 40.96zM634.88 573.44a204.8 204.8 0 1 1-204.8-204.8 204.8 204.8 0 0 1 204.8 204.8z m-204.8-122.88a122.88 122.88 0 1 0 122.88 122.88 122.88 122.88 0 0 0-122.88-122.88z m389.12 491.52H204.8A204.8 204.8 0 0 1 0 737.28V368.64A204.8 204.8 0 0 1 204.8 163.84h61.44a40.96 40.96 0 0 1 0 81.92h-61.44a122.88 122.88 0 0 0-122.88 122.88v368.64a122.88 122.88 0 0 0 122.88 122.88h614.4a122.88 122.88 0 0 0 122.88-122.88V368.64a122.88 122.88 0 0 0-122.88-122.88H512a40.96 40.96 0 0 1 0-81.92h307.2a204.8 204.8 0 0 1 204.8 204.8v368.64a204.8 204.8 0 0 1-204.8 204.8zM491.52 122.88H286.72a40.96 40.96 0 0 1 0-81.92h204.8a40.96 40.96 0 0 1 0 81.92z" p-id="8309"></path></svg>